<?xml version="1.0" encoding="UTF-8"?>
<svg width="700pt" height="700pt" version="1.1" viewBox="0 0 700 700" xmlns="http://www.w3.org/2000/svg" xmlns:xlink="http://www.w3.org/1999/xlink" fill="#0e4749">
 <defs>
  <symbol id="v" overflow="visible">
   <path d="m5.375-0.32812c-0.28125 0.14844-0.57422 0.25781-0.875 0.32812-0.29297 0.070312-0.60547 0.10938-0.9375 0.10938-0.96875 0-1.7422-0.26953-2.3125-0.8125-0.5625-0.53906-0.84375-1.2812-0.84375-2.2188 0-0.92578 0.28125-1.6602 0.84375-2.2031 0.57031-0.55078 1.3438-0.82812 2.3125-0.82812 0.33203 0 0.64453 0.039063 0.9375 0.10938 0.30078 0.074219 0.59375 0.18359 0.875 0.32812v1.2031c-0.28125-0.1875-0.55859-0.32031-0.82812-0.40625-0.27344-0.09375-0.55859-0.14062-0.85938-0.14062-0.54297 0-0.96875 0.17188-1.2812 0.51562-0.30469 0.34375-0.45312 0.82031-0.45312 1.4219 0 0.60547 0.14844 1.0781 0.45312 1.4219 0.3125 0.34375 0.73828 0.51562 1.2812 0.51562 0.30078 0 0.58594-0.039063 0.85938-0.125 0.26953-0.09375 0.54688-0.23438 0.82812-0.42188z"/>
  </symbol>
  <symbol id="c" overflow="visible">
   <path d="m3.9219-3.1875c-0.11719-0.0625-0.23438-0.10156-0.35938-0.125-0.125-0.03125-0.24609-0.046875-0.35938-0.046875-0.36719 0-0.64844 0.11719-0.84375 0.34375-0.1875 0.23047-0.28125 0.5625-0.28125 1v2.0156h-1.4062v-4.3906h1.4062v0.73438c0.17578-0.28906 0.37891-0.5 0.60938-0.625 0.23828-0.13281 0.51953-0.20312 0.84375-0.20312h0.15625c0.050781 0 0.12891 0.011719 0.23438 0.03125z"/>
  </symbol>
  <symbol id="a" overflow="visible">
   <path d="m5.0469-2.2031v0.40625h-3.2812c0.039063 0.32422 0.16016 0.57031 0.35938 0.73438 0.20703 0.16797 0.49219 0.25 0.85938 0.25 0.28906 0 0.59375-0.039062 0.90625-0.125 0.3125-0.09375 0.62891-0.22656 0.95312-0.40625v1.0781c-0.33594 0.125-0.66797 0.21875-1 0.28125-0.33594 0.0625-0.66406 0.09375-0.98438 0.09375-0.80469 0-1.4219-0.19531-1.8594-0.59375-0.4375-0.40625-0.65625-0.97266-0.65625-1.7031 0-0.71875 0.21094-1.2812 0.64062-1.6875 0.4375-0.40625 1.0352-0.60938 1.7969-0.60938 0.6875 0 1.2344 0.21094 1.6406 0.625 0.41406 0.40625 0.625 0.96094 0.625 1.6562zm-1.4375-0.46875c0-0.25781-0.078125-0.47266-0.23438-0.64062-0.15625-0.16406-0.35938-0.25-0.60938-0.25-0.27344 0-0.49609 0.078125-0.67188 0.23438-0.16797 0.15625-0.27344 0.375-0.3125 0.65625z"/>
  </symbol>
  <symbol id="k" overflow="visible">
   <path d="m2.6406-1.9688c-0.29297 0-0.51562 0.054688-0.67188 0.15625-0.14844 0.09375-0.21875 0.23438-0.21875 0.42188 0 0.17969 0.054688 0.32031 0.17188 0.42188 0.125 0.10547 0.29688 0.15625 0.51562 0.15625 0.25781 0 0.47656-0.09375 0.65625-0.28125 0.17578-0.19531 0.26562-0.4375 0.26562-0.71875v-0.15625zm2.1406-0.53125v2.5h-1.4219v-0.65625c-0.1875 0.27344-0.40234 0.46875-0.64062 0.59375-0.23047 0.11328-0.51172 0.17188-0.84375 0.17188-0.46094 0-0.82812-0.12891-1.1094-0.39062-0.28125-0.26953-0.42188-0.61328-0.42188-1.0312 0-0.51953 0.17578-0.89844 0.53125-1.1406 0.35156-0.23828 0.91016-0.35938 1.6719-0.35938h0.8125v-0.10938c0-0.21875-0.089844-0.37891-0.26562-0.48438-0.16797-0.10156-0.4375-0.15625-0.8125-0.15625-0.30469 0-0.58594 0.03125-0.84375 0.09375-0.25 0.0625-0.48438 0.15234-0.70312 0.26562v-1.0625c0.28906-0.070313 0.58594-0.125 0.89062-0.15625 0.3125-0.039063 0.61719-0.0625 0.92188-0.0625 0.78125 0 1.3477 0.15625 1.7031 0.46875 0.35156 0.3125 0.53125 0.82031 0.53125 1.5156z"/>
  </symbol>
  <symbol id="b" overflow="visible">
   <path d="m2.2031-5.625v1.2344h1.4375v1.0156h-1.4375v1.8594c0 0.19922 0.039063 0.33594 0.125 0.40625 0.082031 0.074219 0.24219 0.10938 0.48438 0.10938h0.71875v1h-1.2031c-0.55469 0-0.94922-0.11328-1.1875-0.34375-0.23047-0.22656-0.34375-0.61719-0.34375-1.1719v-1.8594h-0.6875v-1.0156h0.6875v-1.2344z"/>
  </symbol>
  <symbol id="f" overflow="visible">
   <path d="m3.6562-3.7344v-2.3594h1.4062v6.0938h-1.4062v-0.64062c-0.19922 0.26172-0.41406 0.45312-0.64062 0.57812-0.23047 0.11328-0.49609 0.17188-0.79688 0.17188-0.54297 0-0.99219-0.21094-1.3438-0.64062-0.34375-0.42578-0.51562-0.97656-0.51562-1.6562 0-0.67578 0.17188-1.2266 0.51562-1.6562 0.35156-0.42578 0.80078-0.64062 1.3438-0.64062 0.30078 0 0.56641 0.0625 0.79688 0.1875 0.22656 0.11719 0.44141 0.30469 0.64062 0.5625zm-0.92188 2.8281c0.30078 0 0.53125-0.10938 0.6875-0.32812s0.23438-0.53516 0.23438-0.95312c0-0.41406-0.078125-0.73438-0.23438-0.95312s-0.38672-0.32812-0.6875-0.32812c-0.30469 0-0.53125 0.10938-0.6875 0.32812s-0.23438 0.53906-0.23438 0.95312c0 0.41797 0.078125 0.73438 0.23438 0.95312s0.38281 0.32812 0.6875 0.32812z"/>
  </symbol>
  <symbol id="j" overflow="visible">
   <path d="m3-0.90625c0.30078 0 0.53125-0.10938 0.6875-0.32812s0.23438-0.53516 0.23438-0.95312c0-0.41406-0.078125-0.73438-0.23438-0.95312s-0.38672-0.32812-0.6875-0.32812c-0.29297 0-0.52344 0.10938-0.6875 0.32812-0.15625 0.21875-0.23438 0.53906-0.23438 0.95312 0 0.41797 0.078125 0.73438 0.23438 0.95312 0.16406 0.21875 0.39453 0.32812 0.6875 0.32812zm-0.92188-2.8281c0.1875-0.25781 0.39453-0.44531 0.625-0.5625 0.23828-0.125 0.51562-0.1875 0.82812-0.1875 0.53906 0 0.98438 0.21484 1.3281 0.64062 0.34375 0.42969 0.51562 0.98047 0.51562 1.6562 0 0.67969-0.17188 1.2305-0.51562 1.6562-0.34375 0.42969-0.78906 0.64062-1.3281 0.64062-0.3125 0-0.58984-0.058594-0.82812-0.17188-0.23047-0.125-0.4375-0.31641-0.625-0.57812v0.64062h-1.4062v-6.0938h1.4062z"/>
  </symbol>
  <symbol id="i" overflow="visible">
   <path d="m0.09375-4.3906h1.4062l1.1719 2.9844 1-2.9844h1.4062l-1.8438 4.8125c-0.1875 0.47656-0.40625 0.81641-0.65625 1.0156-0.24219 0.19531-0.5625 0.29688-0.96875 0.29688h-0.8125v-0.92188h0.4375c0.23828 0 0.41016-0.042969 0.51562-0.125 0.11328-0.074219 0.20312-0.20312 0.26562-0.39062l0.03125-0.125z"/>
  </symbol>
  <symbol id="e" overflow="visible">
   <path d="m4.2188-4.25v1.1406c-0.19922-0.125-0.39062-0.21875-0.57812-0.28125s-0.38672-0.09375-0.59375-0.09375c-0.39844 0-0.70312 0.11719-0.92188 0.34375-0.21875 0.23047-0.32812 0.54688-0.32812 0.95312s0.10938 0.72656 0.32812 0.95312c0.21875 0.23047 0.52344 0.34375 0.92188 0.34375 0.21875 0 0.42578-0.03125 0.625-0.09375 0.19531-0.0625 0.37891-0.16016 0.54688-0.29688v1.1562c-0.21875 0.074219-0.44531 0.12891-0.67188 0.17188-0.23047 0.039062-0.45312 0.0625-0.67188 0.0625-0.79297 0-1.4141-0.20312-1.8594-0.60938-0.44922-0.40625-0.67188-0.96875-0.67188-1.6875s0.22266-1.2812 0.67188-1.6875c0.44531-0.40625 1.0664-0.60938 1.8594-0.60938 0.22656 0 0.45312 0.023437 0.67188 0.0625 0.21875 0.03125 0.44141 0.089844 0.67188 0.17188z"/>
  </symbol>
  <symbol id="d" overflow="visible">
   <path d="m2.7656-3.4844c-0.3125 0-0.55469 0.11719-0.71875 0.34375-0.16797 0.21875-0.25 0.53906-0.25 0.95312 0 0.41797 0.082031 0.74219 0.25 0.96875 0.16406 0.21875 0.40625 0.32812 0.71875 0.32812 0.30078 0 0.53125-0.10938 0.6875-0.32812 0.16406-0.22656 0.25-0.55078 0.25-0.96875 0-0.41406-0.085937-0.73438-0.25-0.95312-0.15625-0.22656-0.38672-0.34375-0.6875-0.34375zm0-1c0.75 0 1.332 0.20312 1.75 0.60938 0.42578 0.40625 0.64062 0.96875 0.64062 1.6875s-0.21484 1.2812-0.64062 1.6875c-0.41797 0.40625-1 0.60938-1.75 0.60938-0.76172 0-1.3555-0.20312-1.7812-0.60938-0.42969-0.40625-0.64062-0.96875-0.64062-1.6875s0.21094-1.2812 0.64062-1.6875c0.42578-0.40625 1.0195-0.60938 1.7812-0.60938z"/>
  </symbol>
  <symbol id="u" overflow="visible">
   <path d="m2.0781-0.64062v2.3125h-1.4062v-6.0625h1.4062v0.65625c0.1875-0.25781 0.39453-0.44531 0.625-0.5625 0.23828-0.125 0.51562-0.1875 0.82812-0.1875 0.53906 0 0.98438 0.21484 1.3281 0.64062 0.34375 0.42969 0.51562 0.98047 0.51562 1.6562 0 0.67969-0.17188 1.2305-0.51562 1.6562-0.34375 0.42969-0.78906 0.64062-1.3281 0.64062-0.3125 0-0.58984-0.058594-0.82812-0.17188-0.23047-0.125-0.4375-0.31641-0.625-0.57812zm0.92188-2.8281c-0.29297 0-0.52344 0.10938-0.6875 0.32812-0.15625 0.21875-0.23438 0.53906-0.23438 0.95312 0 0.41797 0.078125 0.73438 0.23438 0.95312 0.16406 0.21875 0.39453 0.32812 0.6875 0.32812 0.30078 0 0.53125-0.10938 0.6875-0.32812s0.23438-0.53516 0.23438-0.95312c0-0.41406-0.078125-0.73438-0.23438-0.95312s-0.38672-0.32812-0.6875-0.32812z"/>
  </symbol>
  <symbol id="h" overflow="visible">
   <path d="m0.625-1.7031v-2.6875h1.4062v0.45312 0.89062 0.71875c0 0.35547 0.003906 0.60938 0.015625 0.76562 0.019531 0.14844 0.054687 0.25781 0.10938 0.32812 0.050781 0.09375 0.125 0.16797 0.21875 0.21875 0.09375 0.042969 0.19531 0.0625 0.3125 0.0625 0.28906 0 0.51953-0.10938 0.6875-0.32812 0.16406-0.22656 0.25-0.53906 0.25-0.9375v-2.1719h1.4062v4.3906h-1.4062v-0.64062c-0.21094 0.26172-0.43359 0.45312-0.67188 0.57812-0.23047 0.11328-0.48438 0.17188-0.76562 0.17188-0.51172 0-0.90234-0.14844-1.1719-0.45312-0.26172-0.3125-0.39062-0.76562-0.39062-1.3594z"/>
  </symbol>
  <symbol id="t" overflow="visible">
   <path d="m4.0938-4.25v1.0625c-0.30469-0.125-0.59375-0.21875-0.875-0.28125-0.27344-0.0625-0.53125-0.09375-0.78125-0.09375-0.26172 0-0.46094 0.039062-0.59375 0.10938-0.125 0.0625-0.1875 0.16406-0.1875 0.29688 0 0.11719 0.046875 0.20312 0.14062 0.26562s0.26953 0.10547 0.53125 0.125l0.25 0.046875c0.70703 0.085938 1.1875 0.23438 1.4375 0.45312 0.25 0.21094 0.375 0.53125 0.375 0.96875 0 0.46875-0.17188 0.82422-0.51562 1.0625-0.34375 0.23047-0.85938 0.34375-1.5469 0.34375-0.29297 0-0.59375-0.027344-0.90625-0.078125-0.30469-0.039062-0.61719-0.10156-0.9375-0.1875v-1.0625c0.28125 0.13672 0.56641 0.24219 0.85938 0.3125 0.28906 0.0625 0.58594 0.09375 0.89062 0.09375 0.26953 0 0.47266-0.035156 0.60938-0.10938 0.14453-0.082031 0.21875-0.19531 0.21875-0.34375 0-0.125-0.046875-0.21875-0.14062-0.28125s-0.28906-0.10938-0.57812-0.14062l-0.23438-0.03125c-0.625-0.082031-1.0625-0.22656-1.3125-0.4375-0.25-0.20703-0.375-0.53125-0.375-0.96875 0-0.45703 0.15625-0.79688 0.46875-1.0156 0.32031-0.22656 0.8125-0.34375 1.4688-0.34375 0.25781 0 0.53125 0.023437 0.8125 0.0625 0.28125 0.03125 0.58594 0.089844 0.92188 0.17188z"/>
  </symbol>
  <symbol id="s" overflow="visible">
   <path d="m0.67188-6.0938h1.4062v6.0938h-1.4062z"/>
  </symbol>
  <symbol id="g" overflow="visible">
   <path d="m0.67188-4.3906h1.4062v4.3906h-1.4062zm0-1.7031h1.4062v1.1406h-1.4062z"/>
  </symbol>
  <symbol id="r" overflow="visible">
   <path d="m3.5625-6.0938v0.92188h-0.78125c-0.19922 0-0.33984 0.039063-0.42188 0.10938-0.074219 0.074219-0.10938 0.19922-0.10938 0.375v0.29688h1.2031v1.0156h-1.2031v3.375h-1.4062v-3.375h-0.6875v-1.0156h0.6875v-0.29688c0-0.47656 0.12891-0.83203 0.39062-1.0625 0.26953-0.22656 0.6875-0.34375 1.25-0.34375z"/>
  </symbol>
  <symbol id="q" overflow="visible">
   <path d="m4.7344-3.6562c0.17578-0.26953 0.38281-0.47266 0.625-0.60938 0.25-0.14453 0.51953-0.21875 0.8125-0.21875 0.5 0 0.87891 0.15625 1.1406 0.46875 0.26953 0.30469 0.40625 0.75 0.40625 1.3438v2.6719h-1.4062v-2.2812-0.10938-0.15625c0-0.3125-0.046875-0.53516-0.14062-0.67188-0.085937-0.14453-0.23047-0.21875-0.4375-0.21875-0.26172 0-0.46484 0.10938-0.60938 0.32812-0.14844 0.21875-0.22656 0.53906-0.23438 0.95312v2.1562h-1.4062v-2.2812c0-0.48828-0.042969-0.80078-0.125-0.9375-0.085937-0.14453-0.23047-0.21875-0.4375-0.21875-0.27344 0-0.48047 0.11719-0.625 0.34375-0.14844 0.21875-0.21875 0.53125-0.21875 0.9375v2.1562h-1.4062v-4.3906h1.4062v0.65625c0.16406-0.25 0.35938-0.4375 0.57812-0.5625 0.22656-0.125 0.47656-0.1875 0.75-0.1875 0.30078 0 0.56641 0.074219 0.79688 0.21875 0.23828 0.14844 0.41406 0.35156 0.53125 0.60938z"/>
  </symbol>
  <symbol id="p" overflow="visible">
   <path d="m5.0781-2.6719v2.6719h-1.4062v-2.0312c0-0.38281-0.011719-0.64844-0.03125-0.79688-0.011719-0.14453-0.039063-0.25-0.078125-0.3125-0.0625-0.09375-0.14062-0.16406-0.23438-0.21875-0.09375-0.050781-0.19922-0.078125-0.3125-0.078125-0.29297 0-0.52344 0.11719-0.6875 0.34375-0.16797 0.23047-0.25 0.54297-0.25 0.9375v2.1562h-1.4062v-6.0938h1.4062v2.3594c0.20703-0.25781 0.42969-0.44531 0.67188-0.5625 0.23828-0.125 0.5-0.1875 0.78125-0.1875 0.50781 0 0.89453 0.15625 1.1562 0.46875 0.25781 0.30469 0.39062 0.75 0.39062 1.3438z"/>
  </symbol>
  <symbol id="o" overflow="visible">
   <path d="m0.73438-5.8438h1.6875l2.125 4.0156v-4.0156h1.4219v5.8438h-1.6719l-2.125-4.0156v4.0156h-1.4375z"/>
  </symbol>
  <symbol id="n" overflow="visible">
   <path d="m5.0781-2.6719v2.6719h-1.4062v-2.0469c0-0.375-0.011719-0.63281-0.03125-0.78125-0.011719-0.14453-0.039063-0.25-0.078125-0.3125-0.0625-0.09375-0.14062-0.16406-0.23438-0.21875-0.09375-0.050781-0.19922-0.078125-0.3125-0.078125-0.29297 0-0.52344 0.11719-0.6875 0.34375-0.16797 0.23047-0.25 0.54297-0.25 0.9375v2.1562h-1.4062v-4.3906h1.4062v0.65625c0.20703-0.25781 0.42969-0.44531 0.67188-0.5625 0.23828-0.125 0.5-0.1875 0.78125-0.1875 0.50781 0 0.89453 0.15625 1.1562 0.46875 0.25781 0.30469 0.39062 0.75 0.39062 1.3438z"/>
  </symbol>
  <symbol id="m" overflow="visible">
   <path d="m0.73438-5.8438h2.5c0.75 0 1.3203 0.16797 1.7188 0.5 0.39453 0.32422 0.59375 0.79297 0.59375 1.4062 0 0.61719-0.19922 1.0898-0.59375 1.4219-0.39844 0.32422-0.96875 0.48438-1.7188 0.48438h-0.98438v2.0312h-1.5156zm1.5156 1.0938v1.625h0.82812c0.28906 0 0.51562-0.066406 0.67188-0.20312 0.15625-0.14453 0.23438-0.34766 0.23438-0.60938 0-0.25781-0.078125-0.45703-0.23438-0.59375-0.15625-0.14453-0.38281-0.21875-0.67188-0.21875z"/>
  </symbol>
  <symbol id="l" overflow="visible">
   <path d="m0.67188-4.3906h1.4062v4.3125c0 0.58203-0.14062 1.0312-0.42188 1.3438s-0.69531 0.46875-1.2344 0.46875h-0.6875v-0.92188h0.23438c0.26953 0 0.45312-0.0625 0.54688-0.1875 0.10156-0.11719 0.15625-0.35156 0.15625-0.70312zm0-1.7031h1.4062v1.1406h-1.4062z"/>
  </symbol>
 </defs>
 <g>
  <path d="m578.66 91.336c-0.019531-0.38672-0.039062-0.77734-0.058594-1.1641 0.007813 0.089844 0.023438 0.22656 0-0.027344v-0.007812c-0.28125-2.7344-1.5156-5.3555-3.4609-7.3008l-65.691-65.691c-2.2305-2.2344-5.3477-3.5234-8.5-3.5234h-326.42c-28.855 3.0078-40.465 19.23-46.719 37.031-5.5547 15.805-6.3594 33.289-7.4023 62.871v359.75c1.4922 25.82 10.09 53 28.625 65.059 28.215 18.359 64.328 16.859 157.51 16.859l260.1 0.003906c6.6367 0 12.016-5.3789 12.016-12.016zm-374.15-53.684h291.45l41.664 41.664h-292.23c-25.285-1.5664-40.418-2.6211-49.566-6.4297-15.344-6.3867-15.578-17.008-15.578-21.031 0-5.0703 3.4375-14.199 24.254-14.203zm5.6211 493.51v-427.81h344.49v427.81z"/>
  <path d="m272.89 161.56h217.91v24.035h-217.91z"/>
  <path d="m435.26 314.18c-22.047 0-42.113 12.867-54.223 25.332-12.113-12.465-32.184-25.332-54.227-25.332-24.434 0-44.309 19.879-44.309 44.309 0 11.82 4.6133 22.941 12.992 31.32 8.375 8.3789 19.5 12.992 31.316 12.992 22.027 0 42.102-12.867 54.227-25.336 12.117 12.469 32.195 25.336 54.223 25.336 24.434 0 44.312-19.879 44.312-44.312 0.003906-24.43-19.879-44.309-44.312-44.309zm0 65.141c-16.977 0-31.969-11.969-39.758-20.793 7.793-8.8516 22.797-20.863 39.758-20.863 11.488 0 20.832 9.3438 20.832 20.828s-9.3438 20.828-20.832 20.828zm-108.45-41.66c16.973 0 31.969 11.969 39.758 20.793-7.793 8.8516-22.793 20.863-39.762 20.863-11.48 0-20.824-9.3438-20.824-20.828 0-11.48 9.3438-20.824 20.828-20.828z"/>
 </g>
</svg>
